<?xml version="1.0" standalone="no"?>
<!DOCTYPE svg PUBLIC "-//W3C//DTD SVG 20010904//EN"
 "http://www.w3.org/TR/2001/REC-SVG-20010904/DTD/svg10.dtd">
<svg version="1.0" xmlns="http://www.w3.org/2000/svg"
 width="2327.000000pt" height="482.000000pt" viewBox="0 0 2327.000000 482.000000"
 preserveAspectRatio="xMidYMid meet">

<g transform="translate(0.000000,482.000000) scale(0.100000,-0.100000)"
fill="#000000" stroke="none">
<path d="M19280 4741 c-83 -12 -128 -30 -148 -59 -16 -23 -277 -527 -369 -712
-52 -106 -54 -103 62 -118 536 -68 1031 -143 1212 -182 l52 -11 -34 -62 c-18
-34 -119 -226 -225 -427 -105 -201 -195 -369 -200 -374 -6 -6 -125 7 -302 32
-285 41 -550 73 -888 108 -91 9 -166 17 -168 19 -2 2 83 179 310 645 82 167
121 257 114 262 -14 8 -714 27 -1119 29 -193 2 -210 0 -227 -17 -17 -18 -393
-886 -406 -939 -6 -23 -4 -25 22 -20 53 8 157 15 329 23 216 9 941 9 950 0 4
-4 -90 -208 -209 -454 -118 -246 -214 -450 -211 -454 2 -4 66 -10 142 -13 414
-20 1173 -94 1196 -116 7 -7 -92 -196 -345 -654 -60 -109 -107 -201 -104 -204
3 -3 99 -23 213 -44 827 -151 1150 -210 1164 -215 13 -3 39 33 107 148 192
327 372 653 372 676 0 22 -815 201 -1280 282 -36 6 -73 13 -82 16 -14 4 20 79
205 444 170 337 226 438 237 434 19 -8 1282 -290 1338 -299 23 -4 42 -9 42
-12 0 -3 -8 -17 -18 -31 -11 -15 -67 -121 -127 -237 -59 -115 -150 -291 -201
-391 -52 -99 -94 -185 -94 -191 0 -18 349 -108 660 -172 163 -33 420 -76 558
-94 33 -4 34 -3 82 93 27 54 89 182 138 286 50 104 125 261 167 349 109 226
136 287 130 293 -3 3 -125 7 -271 9 -360 3 -712 34 -926 80 -64 13 -78 20 -78
35 0 11 99 216 220 455 121 240 220 442 220 448 0 7 -71 22 -177 39 -436 68
-1203 214 -1203 230 0 2 69 132 148 279 184 339 322 598 322 606 0 12 -1 12
-330 66 -736 119 -848 133 -970 116z"/>
<path d="M1713 4508 c-54 -93 -273 -583 -319 -715 -10 -29 -15 -56 -10 -60 15
-16 178 -20 776 -22 381 -1 619 -5 643 -12 21 -6 54 -25 74 -42 67 -62 59
-118 -51 -382 l-55 -130 -839 -3 -838 -2 -92 -198 c-103 -224 -207 -449 -247
-537 -25 -55 -237 -516 -377 -820 -33 -71 -121 -263 -195 -425 -75 -162 -146
-316 -158 -342 -17 -35 -20 -50 -12 -55 19 -12 1793 -15 2072 -4 409 17 556
59 709 202 85 79 166 194 221 314 105 229 306 669 334 733 35 80 61 184 61
247 0 54 -24 144 -55 205 -43 86 -38 94 82 131 92 29 118 43 180 101 67 64 85
97 247 450 382 836 387 847 389 963 3 199 -98 332 -306 402 l-82 28 -1066 3
-1067 3 -19 -33z m467 -2199 c20 -5 51 -25 70 -44 32 -33 35 -41 35 -98 0 -57
-9 -82 -104 -297 -58 -132 -114 -245 -128 -257 -24 -23 -29 -23 -251 -22 -125
1 -238 4 -252 8 -51 14 -41 50 101 361 152 334 161 347 264 362 37 6 230 -3
265 -13z"/>
<path d="M21964 4339 c-26 -34 -464 -918 -457 -922 22 -14 165 -19 928 -33
l351 -7 27 24 c17 15 75 126 158 299 72 151 160 336 196 410 102 211 98 198
65 204 -15 2 -162 8 -327 12 -165 3 -322 8 -350 9 -27 2 -169 6 -315 10 -219
6 -268 5 -276 -6z"/>
<path d="M12190 3617 c-19 -10 -49 -69 -142 -282 -65 -149 -118 -277 -118
-286 0 -9 8 -20 18 -24 9 -4 204 -9 432 -12 234 -3 429 -9 448 -15 42 -13 56
-40 49 -97 -3 -25 -69 -248 -147 -496 -243 -774 -270 -854 -290 -865 -20 -11
-385 -12 -435 -1 -25 5 -31 12 -33 38 -3 34 -27 1 455 635 217 285 279 378
269 403 -5 13 -60 15 -380 15 -271 0 -382 -3 -401 -12 -15 -7 -120 -124 -233
-262 -114 -137 -277 -333 -362 -436 -819 -988 -817 -985 -803 -993 19 -10 211
-12 1345 -12 1194 0 1208 0 1227 20 11 12 42 102 76 215 409 1400 579 1990
596 2065 50 217 -22 368 -191 404 -77 17 -1347 15 -1380 -2z"/>
<path d="M4528 3588 c-45 -9 -60 -32 -143 -215 -40 -87 -123 -270 -185 -408
-160 -354 -575 -1270 -752 -1660 -128 -281 -178 -396 -178 -410 0 -8 151 -15
424 -19 315 -5 340 -2 378 40 14 16 658 1426 1030 2254 113 250 175 406 166
415 -7 7 -705 10 -740 3z"/>
<path d="M5516 3589 c-21 -3 -47 -15 -57 -26 -19 -18 -96 -182 -203 -428 -68
-155 -70 -142 21 -152 43 -4 506 -8 1030 -8 936 0 952 0 978 20 34 26 38 33
144 272 90 202 129 308 119 318 -7 8 -1986 11 -2032 4z"/>
<path d="M7767 3578 c-25 -19 -276 -572 -264 -584 12 -12 315 -19 837 -19 685
0 632 -8 685 108 157 345 211 479 199 498 -3 5 -323 9 -723 9 -558 0 -721 -3
-734 -12z"/>
<path d="M9945 3579 c-277 -19 -487 -151 -627 -394 -88 -153 -126 -323 -115
-504 21 -307 140 -438 535 -585 178 -66 234 -119 234 -217 -1 -40 -10 -71 -38
-128 -62 -125 -154 -200 -291 -237 -82 -21 -372 -33 -824 -34 -353 0 -389 -2
-408 -17 -19 -17 -242 -498 -256 -554 -6 -24 -4 -27 36 -33 70 -11 1495 -7
1589 4 397 50 776 300 932 615 73 147 101 271 102 450 0 216 -46 337 -179 470
-96 97 -175 139 -345 185 -271 73 -353 149 -282 261 59 92 130 107 497 108
236 0 262 2 285 19 25 19 42 47 94 162 17 36 50 108 74 160 50 108 105 261 96
269 -9 9 -983 9 -1109 0z"/>
<path d="M14677 3578 c-19 -15 -257 -540 -257 -568 0 -14 10 -19 43 -24 70
-10 1093 -19 1252 -11 140 7 148 8 175 34 20 18 62 105 139 287 61 143 111
268 111 277 0 16 -53 17 -723 17 -563 0 -727 -3 -740 -12z"/>
<path d="M5700 2563 c-22 -20 -70 -117 -174 -348 -79 -176 -241 -534 -359
-797 -119 -262 -219 -487 -222 -501 -6 -22 -3 -25 32 -31 21 -3 178 -9 348
-12 348 -7 379 -4 419 49 13 18 106 214 207 437 100 223 249 554 331 735 134
295 198 452 198 484 0 8 -114 11 -375 11 l-375 0 -30 -27z"/>
<path d="M7286 2538 c-26 -59 -117 -258 -163 -358 -91 -197 -219 -474 -318
-690 -62 -135 -190 -414 -285 -620 -328 -714 -390 -851 -390 -860 0 -6 136
-10 363 -10 l363 0 26 28 c14 15 72 117 128 227 57 110 116 223 131 251 15 28
95 185 177 350 135 269 224 460 408 872 66 149 97 193 157 223 38 20 55 21
299 20 283 -2 326 4 356 47 42 60 242 531 242 569 0 2 -331 3 -735 3 l-735 0
-24 -52z"/>
<path d="M14181 2492 c-41 -82 -176 -369 -259 -552 -126 -277 -188 -417 -292
-655 -159 -364 -167 -384 -150 -395 25 -15 335 -22 881 -18 458 2 549 5 563
17 21 18 84 142 154 302 50 115 115 290 110 294 -2 2 -134 5 -293 7 -325 5
-341 8 -331 61 4 18 39 101 78 185 65 140 93 181 151 224 1 1 138 4 304 7 286
6 303 7 330 27 21 16 54 82 140 280 62 142 113 271 113 287 l0 27 -725 0 -725
0 -49 -98z"/>
<path d="M17698 2025 c-2 -1 -79 -5 -173 -9 -205 -7 -431 -27 -700 -62 -229
-29 -265 -37 -289 -62 -9 -11 -84 -190 -167 -398 -254 -639 -255 -640 -236
-647 6 -2 65 14 131 35 260 82 580 151 881 189 88 11 170 27 182 34 20 14 46
60 215 385 205 393 270 522 265 527 -6 5 -103 13 -109 8z"/>
</g>
</svg>
