<svg width="558" height="469" xmlns="http://www.w3.org/2000/svg" xmlns:xlink="http://www.w3.org/1999/xlink" overflow="hidden">
  <defs>
    <clipPath id="clip0">
      <rect x="2788" y="624" width="558" height="469"/>
    </clipPath>
    <!-- 定义银色渐变 -->
    <linearGradient id="silver-gradient" x1="0%" y1="0%" x2="0%" y2="100%">
      <stop offset="0%" style="stop-color:#B3B3B3; stop-opacity:1"/>
      <stop offset="50%" style="stop-color:#FFFFFF; stop-opacity:1"/>
      <stop offset="100%" style="stop-color:#C0C0C0; stop-opacity:1"/>
    </linearGradient>
  </defs>
  <g clip-path="url(#clip0)" transform="translate(-2788 -624)">
    <!-- 将填充色应用为银色渐变 -->
    <path d="M2952.66 877.255 2975.51 931.594 2899.11 931.594 2897.01 927.816C2914.94 911.569 2932.84 895.288 2952.66 877.255ZM3091.51 841.635C3071.8 842.837 3052.11 843.97 3032.39 845.276 3029.26 845.379 3026.13 846.34 3019.32 847.543 3034.66 856.474 3046.4 863.412 3058.24 870.041 3060.51 871.312 3064.64 872.858 3065.81 871.862 3075.72 863.481 3085.11 854.687 3094.65 845.791ZM3273.49 789.321C3303.88 819.239 3334.2 851.664 3346 900.611L3225.55 915.622ZM3092.86 724.402 3057.82 752.877C3089.35 753.804 3090.76 752.637 3092.86 724.402ZM3231.3 624 3231.3 744.221C3218.19 715.746 3222.87 684.523 3217.16 651.788 3202.19 665.94 3187.67 678.374 3174.86 692.354 3168.33 699.499 3174.66 706.094 3180.82 711.452 3200.91 728.627 3220.5 746.454 3241.01 763.147 3249.68 770.223 3252.05 778.089 3249.2 787.947 3243 809.244 3238.22 831.227 3229.61 851.527 3212.8 891.257 3190.81 928.606 3164.23 962.612 3144.99 987.137 3124.83 1010.97 3106.86 1036.39 3099.98 1046.32 3097.5 1059.58 3093.58 1071.5 3091.78 1078.81 3089.48 1086 3086.7 1093 3061.37 1045.19 3023.48 1016.23 2968.25 1011.63L2970.11 1007.68 3001.7 996.446C3018.04 990.503 3020.93 983.771 3013.53 967.043 3004.97 947.567 2995.78 928.331 2987.17 908.856 2982.97 899.708 2980.22 889.962 2979.02 879.968 2983.06 886.368 2987.57 892.464 2992.51 898.207 3022.45 928.434 3052.32 958.799 3083.19 988.099 3096.95 1001.05 3104.66 999.812 3113.92 983.736 3132.95 950.624 3151.29 917.065 3168.6 882.991 3179.68 861.179 3176.41 838.165 3165.16 817.453 3160.1 809.756 3151.98 804.592 3142.86 803.267 3119.74 801.412 3096.5 801.412 3073.38 803.267 3040.86 805.98 3008.48 810.789 2976.13 815.392 2959.23 817.796 2942.54 821.712 2925.75 824.941L2925.61 828.479C2936.17 829.819 2946.74 832.292 2957.3 832.257 3004.83 832.086 3052.32 831.158 3099.84 830.54L3117.53 830.54 3065.29 889.826C3047.5 877.804 3030.64 865.782 3012.98 854.859 3006.73 851.175 2999.6 849.219 2992.34 849.192 2971 849.192 2949.66 851.527 2928.33 851.287 2893.26 850.909 2863.6 836.311 2836.86 814.465 2825.5 805.225 2812.42 798.08 2800.96 788.909 2782.73 774.276 2783.76 766.376 2803.89 753.907 2864.8 716.124 2931.84 693.247 2999.01 669.821 3071.28 644.643 3145.68 632.621 3221.15 624.515 3224.31 624.172 3227.52 624.206 3231.3 624Z" fill="url(#silver-gradient)" fill-rule="evenodd"/>
  </g>
</svg>