<?xml version="1.0" standalone="no"?><!DOCTYPE svg PUBLIC "-//W3C//DTD SVG 1.1//EN" "http://www.w3.org/Graphics/SVG/1.1/DTD/svg11.dtd"><svg t="1767690834737" class="icon" viewBox="0 0 1024 1024" version="1.1" xmlns="http://www.w3.org/2000/svg" p-id="4944" xmlns:xlink="http://www.w3.org/1999/xlink" width="200" height="200"><path d="M654.821053 355.354947l265.889684-265.916631L849.731368 18.458947l-265.889684 265.916632L299.654737 0.188632 264.165053 35.678316a449.050947 449.050947 0 0 0-132.554106 319.676631c0 105.633684 36.028632 205.662316 102.184421 286.31579L86.716632 935.801263a50.337684 50.337684 0 0 0 44.894315 72.865684H433.044211a50.310737 50.310737 0 0 0 44.894315-72.865684l-85.504-170.981052a449.994105 449.994105 0 0 0 191.434106 42.738526c120.724211 0 234.172632-47.050105 319.676631-132.554105l35.489684-35.489685L654.821053 355.354947zM212.803368 907.856842l69.362527-138.752 69.389473 138.752H212.803368z m371.038316-200.838737a349.615158 349.615158 0 0 1-248.72421-102.992842 349.157053 349.157053 0 0 1-102.938948-248.670316c0-76.907789 24.468211-150.042947 69.901474-210.539789l492.274526 492.301474a348.698947 348.698947 0 0 1-210.512842 69.901473z" fill="#2c2c2c" p-id="4945"></path></svg>